<svg aria-hidden="true" style="position: absolute; width: 0; height: 0; overflow: hidden;" version="1.1" xmlns="http://www.w3.org/2000/svg" xmlns:xlink="http://www.w3.org/1999/xlink">
<defs>
<symbol id="download" viewBox="0 0 32 32">
<path d="M29.246 7.663l-13.245 13.248-13.245-13.249c-0.631-0.631-1.653-0.631-2.284 0-0.63 0.631-0.63 1.655 0 2.286l14.386 14.391c0.63 0.631 1.653 0.631 2.283 0l14.386-14.391c0.63-0.631 0.63-1.656 0-2.288-0.628-0.628-1.651-0.628-2.281 0.003z"></path>
</symbol>
<symbol id="upload" viewBox="0 0 32 32">
<path d="M17.141 7.682c-0.622-0.622-1.661-0.622-2.284 0l-14.385 14.348c-0.63 0.63-0.63 1.651 0 2.279 0.63 0.63 1.653 0.63 2.283 0l13.245-13.208 13.243 13.21c0.631 0.63 1.653 0.63 2.284 0 0.63-0.63 0.63-1.651 0-2.279l-14.386-14.35z"></path>
</symbol>
<symbol id="vector" viewBox="0 0 32 32">
<path d="M32 3.223l-3.223-3.223-12.777 12.777-12.777-12.777-3.223 3.223 12.777 12.777-12.777 12.777 3.223 3.223 12.777-12.777 12.777 12.777 3.223-3.223-12.777-12.777 12.777-12.777z"></path>
</symbol>
</defs>
</svg>
